<mxfile host="app.diagrams.net" modified="2023-07-04T03:51:16.296Z" agent="Mozilla/5.0 (Windows NT 10.0; Win64; x64) AppleWebKit/537.36 (KHTML, like Gecko) Chrome/114.0.0.0 Safari/537.36 Edg/114.0.1823.58" version="21.5.2" etag="u9Wh0CxT-ehIyyCXkprU" type="github">
  <diagram name="第 1 页" id="u1zVKfGrWxaGnNZkNF1G">
    <mxGraphModel>
      <root>
        <mxCell id="0" />
        <mxCell id="1" parent="0" />
      </root>
    </mxGraphModel>
  </diagram>
</mxfile>
